<?xml version="1.0" standalone="no"?>
<!DOCTYPE svg PUBLIC "-//W3C//DTD SVG 20010904//EN"
 "http://www.w3.org/TR/2001/REC-SVG-20010904/DTD/svg10.dtd">
<svg version="1.0" xmlns="http://www.w3.org/2000/svg"
 width="640.000000pt" height="640.000000pt" viewBox="0 0 640.000000 640.000000"
 preserveAspectRatio="xMidYMid meet">
<metadata>
Created by potrace 1.11, written by Peter Selinger 2001-2013
</metadata>
<g transform="translate(0.000000,640.000000) scale(0.100000,-0.100000)"
fill="#000000" stroke="none">
<path d="M2942 5928 c-166 -24 -327 -69 -466 -130 -62 -27 -74 -29 -135 -23
-145 16 -342 12 -461 -10 -196 -35 -351 -104 -518 -230 -377 -282 -791 -831
-1112 -1473 -176 -351 -241 -573 -246 -837 -4 -178 9 -258 57 -370 17 -40 82
-136 105 -157 60 -53 273 -129 403 -143 25 -3 47 -7 49 -10 3 -3 7 -33 9 -67
9 -152 72 -375 154 -548 161 -339 429 -593 754 -715 82 -31 240 -72 310 -81
28 -3 59 -8 70 -11 33 -8 387 -12 435 -4 41 6 50 4 100 -30 55 -37 259 -139
277 -139 6 0 9 -30 8 -67 -1 -61 3 -76 38 -145 47 -94 142 -200 208 -234 140
-70 298 -71 437 0 58 29 148 124 196 205 45 77 50 94 49 169 l-1 62 112 54
c62 29 139 71 172 92 55 37 62 39 109 33 59 -7 356 -4 435 6 30 3 86 13 125
21 38 9 79 17 90 20 49 10 186 59 255 92 203 96 356 221 503 412 111 144 213
367 273 595 4 17 8 32 9 35 1 3 5 25 9 50 4 25 9 54 11 65 2 11 4 45 4 76 l1
57 58 7 c160 19 362 95 419 158 41 46 80 110 99 159 41 109 47 145 50 293 6
358 -108 688 -425 1228 -25 44 -57 98 -70 120 -56 96 -221 338 -323 472 -78
102 -198 237 -307 345 -271 270 -469 383 -759 436 -105 19 -326 24 -440 11
-72 -9 -88 -8 -120 8 -20 9 -80 33 -132 52 -280 102 -589 134 -878 91z"/>
</g>
</svg>
